<?xml version="1.0" encoding="UTF-8" standalone="no"?>
<!-- Created with Inkscape (http://www.inkscape.org/) -->

<svg
   xmlns:dc="http://purl.org/dc/elements/1.1/"
   xmlns:cc="http://creativecommons.org/ns#"
   xmlns:rdf="http://www.w3.org/1999/02/22-rdf-syntax-ns#"
   xmlns:svg="http://www.w3.org/2000/svg"
   xmlns="http://www.w3.org/2000/svg"
   xmlns:sodipodi="http://sodipodi.sourceforge.net/DTD/sodipodi-0.dtd"
   xmlns:inkscape="http://www.inkscape.org/namespaces/inkscape"
   width="8.7114754mm"
   height="10.302576mm"
   viewBox="0 0 30.867433 36.505191"
   id="svg2"
   version="1.1"
   inkscape:version="0.91 r13725"
   sodipodi:docname="CFB monogram.svg">
  <defs
     id="defs4" />
  <sodipodi:namedview
     id="base"
     pagecolor="#ffffff"
     bordercolor="#666666"
     borderopacity="1.0"
     inkscape:pageopacity="0.0"
     inkscape:pageshadow="2"
     inkscape:zoom="22.4"
     inkscape:cx="4.9396846"
     inkscape:cy="17.203185"
     inkscape:document-units="px"
     inkscape:current-layer="layer1"
     showgrid="false"
     inkscape:window-width="1855"
     inkscape:window-height="1056"
     inkscape:window-x="65"
     inkscape:window-y="24"
     inkscape:window-maximized="1"
     showguides="true"
     inkscape:guide-bbox="true"
     fit-margin-top="0"
     fit-margin-left="0"
     fit-margin-right="0"
     fit-margin-bottom="0"
     showborder="false">
    <inkscape:grid
       type="xygrid"
       id="grid4141"
       originx="-0.49108665"
       originy="-3.8090647e-06" />
  </sodipodi:namedview>
  <metadata
     id="metadata7">
    <rdf:RDF>
      <cc:Work
         rdf:about="">
        <dc:format>image/svg+xml</dc:format>
        <dc:type
           rdf:resource="http://purl.org/dc/dcmitype/StillImage" />
        <dc:title />
      </cc:Work>
    </rdf:RDF>
  </metadata>
  <g
     inkscape:label="Layer 1"
     inkscape:groupmode="layer"
     id="layer1"
     transform="translate(-288.8178,-385.34546)">
    <g
       style="font-style:normal;font-variant:normal;font-weight:200;font-stretch:normal;font-size:40px;line-height:125%;font-family:Raleway;-inkscape-font-specification:'Raleway, Ultra-Light';text-align:start;letter-spacing:0px;word-spacing:0px;writing-mode:lr-tb;text-anchor:start;fill:#000000;fill-opacity:1;stroke:none;stroke-width:1px;stroke-linecap:butt;stroke-linejoin:miter;stroke-opacity:1"
       id="text4136">
      <path
         d="m 288.8178,399.74546 c 0,7 5.52,14.4 13.4,14.4 4,0 9.52,-2.44 11.04,-6.6 l -0.76,-0.2 c -1.28,3.4 -6.8,6 -10.28,6 -7,0 -12.6,-6.48 -12.6,-13.6 0,-6.68 4.64,-13.6 12.12,-13.6 4.4,0 7.92,1.64 10.08,5.64 l 0.76,-0.24 c -1.8,-3.6 -4.96,-6.2 -10.84,-6.2 -7.56,0 -12.92,7 -12.92,14.4 z"
         style=""
         id="path4141" />
    </g>
    <g
       style="font-style:normal;font-variant:normal;font-weight:200;font-stretch:normal;font-size:40px;line-height:125%;font-family:Raleway;-inkscape-font-specification:'Raleway, Ultra-Light';text-align:start;letter-spacing:0px;word-spacing:0px;writing-mode:lr-tb;text-anchor:start;fill:#000000;fill-opacity:1;stroke:none;stroke-width:1px;stroke-linecap:butt;stroke-linejoin:miter;stroke-opacity:1"
       id="text4140">
      <path
         d="m 297.90138,419.53912 0,-14.16 15.32,0 0,-0.8 -15.32,0 0,-12.64 17.48,0 0,-0.8 -18.28,0 0,28.4 0.8,0 z"
         style=""
         id="path4144" />
    </g>
    <g
       style="font-style:normal;font-variant:normal;font-weight:200;font-stretch:normal;font-size:40px;line-height:125%;font-family:Raleway;-inkscape-font-specification:'Raleway, Ultra-Light';text-align:start;letter-spacing:0px;word-spacing:0px;writing-mode:lr-tb;text-anchor:start;fill:#000000;fill-opacity:1;stroke:none;stroke-width:1px;stroke-linecap:butt;stroke-linejoin:miter;stroke-opacity:1"
       id="text4144">
      <path
         d="m 319.68523,414.49065 c 0,-3.24 -2.04,-6.24 -5.28,-7.2 2.48,-1.12 4.08,-3.72 4.08,-6.6 0,-3.56 -2.48,-7.24 -6.48,-7.24 l -12.56,0 0,28.4 13.16,0 c 3.88,0 6.92,-3.44 7.08,-7.36 z m -0.8,0 c 0,3.28 -2.76,6.56 -6.28,6.56 l -12.36,0 0,-13.12 12.64,0 c 3.44,0 6,3.16 6,6.56 z m -6.88,-20.24 c 3.36,0.08 5.68,3.04 5.68,6.44 0,3.16 -2.44,6.44 -5.92,6.44 l -11.52,0 0,-12.88 11.76,0 z"
         style=""
         id="path4147" />
    </g>
  </g>
</svg>
